<mxfile host="Electron" agent="Mozilla/5.0 (Macintosh; Intel Mac OS X 10_15_7) AppleWebKit/537.36 (KHTML, like Gecko) draw.io/28.0.4 Chrome/138.0.7204.97 Electron/37.2.1 Safari/537.36" version="28.0.4">
  <diagram name="페이지-1" id="7zr6TsKU_Owf4KcAXmKO">
    <mxGraphModel dx="879" dy="490" grid="1" gridSize="10" guides="1" tooltips="1" connect="1" arrows="1" fold="1" page="1" pageScale="1" pageWidth="827" pageHeight="1169" math="1" shadow="0">
      <root>
        <mxCell id="0" />
        <mxCell id="1" parent="0" />
        <mxCell id="iRb66UN-U3SfoVwylHy6-5" value="`s_4`" style="rounded=0;whiteSpace=wrap;html=1;fontSize=20;fillColor=#dae8fc;strokeColor=#000000;" parent="1" vertex="1">
          <mxGeometry x="170" y="460" width="80" height="80" as="geometry" />
        </mxCell>
        <mxCell id="iRb66UN-U3SfoVwylHy6-1" value="`s_1`" style="rounded=0;whiteSpace=wrap;html=1;fontSize=20;" parent="1" vertex="1">
          <mxGeometry x="90" y="380" width="80" height="80" as="geometry" />
        </mxCell>
        <mxCell id="iRb66UN-U3SfoVwylHy6-2" value="`s_2`" style="rounded=0;whiteSpace=wrap;html=1;fontSize=20;fillColor=#fff2cc;strokeColor=#000000;" parent="1" vertex="1">
          <mxGeometry x="170" y="380" width="80" height="80" as="geometry" />
        </mxCell>
        <mxCell id="iRb66UN-U3SfoVwylHy6-4" value="`s_3`" style="rounded=0;whiteSpace=wrap;html=1;fontSize=20;" parent="1" vertex="1">
          <mxGeometry x="90" y="460" width="80" height="80" as="geometry" />
        </mxCell>
        <mxCell id="LoAmK8Ps8y504nuqluMm-1" value="" style="endArrow=classic;html=1;rounded=0;fillColor=#d5e8d4;strokeColor=#009900;" edge="1" parent="1">
          <mxGeometry width="50" height="50" relative="1" as="geometry">
            <mxPoint x="130.00000000000037" y="434" as="sourcePoint" />
            <mxPoint x="129.58000000000038" y="454" as="targetPoint" />
          </mxGeometry>
        </mxCell>
        <mxCell id="LoAmK8Ps8y504nuqluMm-2" value="" style="endArrow=classic;html=1;rounded=0;fillColor=#d5e8d4;strokeColor=#009900;" edge="1" parent="1">
          <mxGeometry width="50" height="50" relative="1" as="geometry">
            <mxPoint x="144" y="504.89" as="sourcePoint" />
            <mxPoint x="164.4156097560974" y="504.89" as="targetPoint" />
          </mxGeometry>
        </mxCell>
        <mxCell id="LoAmK8Ps8y504nuqluMm-3" value="" style="endArrow=classic;html=1;rounded=0;fillColor=#d5e8d4;strokeColor=#009900;" edge="1" parent="1">
          <mxGeometry width="50" height="50" relative="1" as="geometry">
            <mxPoint x="210.21" y="433" as="sourcePoint" />
            <mxPoint x="209.79000000000002" y="453" as="targetPoint" />
          </mxGeometry>
        </mxCell>
        <mxCell id="LoAmK8Ps8y504nuqluMm-12" value="" style="ellipse;whiteSpace=wrap;html=1;fillColor=none;strokeColor=#009900;" vertex="1" parent="1">
          <mxGeometry x="195.25" y="487" width="29.5" height="30" as="geometry" />
        </mxCell>
        <mxCell id="LoAmK8Ps8y504nuqluMm-6" value="`r = 1`" style="text;html=1;align=center;verticalAlign=middle;whiteSpace=wrap;rounded=0;fontSize=10;fontColor=#FF0000;" vertex="1" parent="1">
          <mxGeometry x="121" y="500" width="60" height="30" as="geometry" />
        </mxCell>
        <mxCell id="LoAmK8Ps8y504nuqluMm-7" value="`r = 0`" style="text;html=1;align=center;verticalAlign=middle;whiteSpace=wrap;rounded=0;fontSize=10;fontColor=#FF0000;" vertex="1" parent="1">
          <mxGeometry x="121" y="425" width="60" height="30" as="geometry" />
        </mxCell>
        <mxCell id="LoAmK8Ps8y504nuqluMm-11" value="`r = 1`" style="text;html=1;align=center;verticalAlign=middle;whiteSpace=wrap;rounded=0;fontSize=10;fontColor=#FF0000;" vertex="1" parent="1">
          <mxGeometry x="203" y="425" width="60" height="30" as="geometry" />
        </mxCell>
        <mxCell id="LoAmK8Ps8y504nuqluMm-14" value="`r = 1`" style="text;html=1;align=center;verticalAlign=middle;whiteSpace=wrap;rounded=0;fontSize=10;fontColor=#FF0000;" vertex="1" parent="1">
          <mxGeometry x="181" y="510" width="60" height="30" as="geometry" />
        </mxCell>
        <mxCell id="LoAmK8Ps8y504nuqluMm-15" value="`s_4`" style="rounded=0;whiteSpace=wrap;html=1;fontSize=20;fillColor=#dae8fc;strokeColor=#000000;" vertex="1" parent="1">
          <mxGeometry x="420" y="460" width="80" height="80" as="geometry" />
        </mxCell>
        <mxCell id="LoAmK8Ps8y504nuqluMm-16" value="`s_1`" style="rounded=0;whiteSpace=wrap;html=1;fontSize=20;" vertex="1" parent="1">
          <mxGeometry x="340" y="380" width="80" height="80" as="geometry" />
        </mxCell>
        <mxCell id="LoAmK8Ps8y504nuqluMm-17" value="`s_2`" style="rounded=0;whiteSpace=wrap;html=1;fontSize=20;fillColor=#fff2cc;strokeColor=#000000;" vertex="1" parent="1">
          <mxGeometry x="420" y="380" width="80" height="80" as="geometry" />
        </mxCell>
        <mxCell id="LoAmK8Ps8y504nuqluMm-18" value="`s_3`" style="rounded=0;whiteSpace=wrap;html=1;fontSize=20;" vertex="1" parent="1">
          <mxGeometry x="340" y="460" width="80" height="80" as="geometry" />
        </mxCell>
        <mxCell id="LoAmK8Ps8y504nuqluMm-20" value="" style="endArrow=classic;html=1;rounded=0;fillColor=#d5e8d4;strokeColor=#009900;" edge="1" parent="1">
          <mxGeometry width="50" height="50" relative="1" as="geometry">
            <mxPoint x="394" y="504.89" as="sourcePoint" />
            <mxPoint x="414.4156097560974" y="504.89" as="targetPoint" />
          </mxGeometry>
        </mxCell>
        <mxCell id="LoAmK8Ps8y504nuqluMm-21" value="" style="endArrow=classic;html=1;rounded=0;fillColor=#d5e8d4;strokeColor=#009900;" edge="1" parent="1">
          <mxGeometry width="50" height="50" relative="1" as="geometry">
            <mxPoint x="460.21000000000004" y="433" as="sourcePoint" />
            <mxPoint x="459.79" y="453" as="targetPoint" />
          </mxGeometry>
        </mxCell>
        <mxCell id="LoAmK8Ps8y504nuqluMm-22" value="" style="ellipse;whiteSpace=wrap;html=1;fillColor=none;strokeColor=#009900;" vertex="1" parent="1">
          <mxGeometry x="445.25" y="487" width="29.5" height="30" as="geometry" />
        </mxCell>
        <mxCell id="LoAmK8Ps8y504nuqluMm-23" value="`r = 1`" style="text;html=1;align=center;verticalAlign=middle;whiteSpace=wrap;rounded=0;fontSize=10;fontColor=#FF0000;" vertex="1" parent="1">
          <mxGeometry x="371" y="500" width="60" height="30" as="geometry" />
        </mxCell>
        <mxCell id="LoAmK8Ps8y504nuqluMm-25" value="`r = 1`" style="text;html=1;align=center;verticalAlign=middle;whiteSpace=wrap;rounded=0;fontSize=10;fontColor=#FF0000;" vertex="1" parent="1">
          <mxGeometry x="453" y="425" width="60" height="30" as="geometry" />
        </mxCell>
        <mxCell id="LoAmK8Ps8y504nuqluMm-26" value="`r = 1`" style="text;html=1;align=center;verticalAlign=middle;whiteSpace=wrap;rounded=0;fontSize=10;fontColor=#FF0000;" vertex="1" parent="1">
          <mxGeometry x="431" y="510" width="60" height="30" as="geometry" />
        </mxCell>
        <mxCell id="LoAmK8Ps8y504nuqluMm-27" value="`r = -1`" style="text;html=1;align=center;verticalAlign=middle;whiteSpace=wrap;rounded=0;fontSize=10;fontColor=#FF0000;" vertex="1" parent="1">
          <mxGeometry x="371" y="425" width="60" height="30" as="geometry" />
        </mxCell>
        <mxCell id="LoAmK8Ps8y504nuqluMm-28" value="" style="endArrow=classic;html=1;rounded=0;fillColor=#d5e8d4;strokeColor=#009900;" edge="1" parent="1">
          <mxGeometry width="50" height="50" relative="1" as="geometry">
            <mxPoint x="393" y="425" as="sourcePoint" />
            <mxPoint x="413.4156097560974" y="425" as="targetPoint" />
          </mxGeometry>
        </mxCell>
        <mxCell id="LoAmK8Ps8y504nuqluMm-29" value="`s_4`" style="rounded=0;whiteSpace=wrap;html=1;fontSize=20;fillColor=#dae8fc;strokeColor=#000000;" vertex="1" parent="1">
          <mxGeometry x="670" y="460" width="80" height="80" as="geometry" />
        </mxCell>
        <mxCell id="LoAmK8Ps8y504nuqluMm-30" value="`s_1`" style="rounded=0;whiteSpace=wrap;html=1;fontSize=20;" vertex="1" parent="1">
          <mxGeometry x="590" y="380" width="80" height="80" as="geometry" />
        </mxCell>
        <mxCell id="LoAmK8Ps8y504nuqluMm-31" value="`s_2`" style="rounded=0;whiteSpace=wrap;html=1;fontSize=20;fillColor=#fff2cc;strokeColor=#000000;" vertex="1" parent="1">
          <mxGeometry x="670" y="380" width="80" height="80" as="geometry" />
        </mxCell>
        <mxCell id="LoAmK8Ps8y504nuqluMm-32" value="`s_3`" style="rounded=0;whiteSpace=wrap;html=1;fontSize=20;" vertex="1" parent="1">
          <mxGeometry x="590" y="460" width="80" height="80" as="geometry" />
        </mxCell>
        <mxCell id="LoAmK8Ps8y504nuqluMm-33" value="" style="endArrow=classic;html=1;rounded=0;fillColor=#d5e8d4;strokeColor=#009900;" edge="1" parent="1">
          <mxGeometry width="50" height="50" relative="1" as="geometry">
            <mxPoint x="644" y="504.89" as="sourcePoint" />
            <mxPoint x="664.4156097560974" y="504.89" as="targetPoint" />
          </mxGeometry>
        </mxCell>
        <mxCell id="LoAmK8Ps8y504nuqluMm-34" value="" style="endArrow=classic;html=1;rounded=0;fillColor=#d5e8d4;strokeColor=#009900;" edge="1" parent="1">
          <mxGeometry width="50" height="50" relative="1" as="geometry">
            <mxPoint x="710.21" y="433" as="sourcePoint" />
            <mxPoint x="709.79" y="453" as="targetPoint" />
          </mxGeometry>
        </mxCell>
        <mxCell id="LoAmK8Ps8y504nuqluMm-35" value="" style="ellipse;whiteSpace=wrap;html=1;fillColor=none;strokeColor=#009900;" vertex="1" parent="1">
          <mxGeometry x="695.25" y="487" width="29.5" height="30" as="geometry" />
        </mxCell>
        <mxCell id="LoAmK8Ps8y504nuqluMm-36" value="`r = 1`" style="text;html=1;align=center;verticalAlign=middle;whiteSpace=wrap;rounded=0;fontSize=10;fontColor=#FF0000;" vertex="1" parent="1">
          <mxGeometry x="621" y="500" width="60" height="30" as="geometry" />
        </mxCell>
        <mxCell id="LoAmK8Ps8y504nuqluMm-37" value="`r = 1`" style="text;html=1;align=center;verticalAlign=middle;whiteSpace=wrap;rounded=0;fontSize=10;fontColor=#FF0000;" vertex="1" parent="1">
          <mxGeometry x="703" y="425" width="60" height="30" as="geometry" />
        </mxCell>
        <mxCell id="LoAmK8Ps8y504nuqluMm-38" value="`r = 1`" style="text;html=1;align=center;verticalAlign=middle;whiteSpace=wrap;rounded=0;fontSize=10;fontColor=#FF0000;" vertex="1" parent="1">
          <mxGeometry x="681" y="510" width="60" height="30" as="geometry" />
        </mxCell>
        <mxCell id="LoAmK8Ps8y504nuqluMm-39" value="&lt;div&gt;`p = 0.5`&lt;/div&gt;`r = -1`" style="text;html=1;align=center;verticalAlign=middle;whiteSpace=wrap;rounded=0;fontSize=10;fontColor=#FF0000;" vertex="1" parent="1">
          <mxGeometry x="621" y="390" width="60" height="30" as="geometry" />
        </mxCell>
        <mxCell id="LoAmK8Ps8y504nuqluMm-40" value="" style="endArrow=classic;html=1;rounded=0;fillColor=#d5e8d4;strokeColor=#009900;" edge="1" parent="1">
          <mxGeometry width="50" height="50" relative="1" as="geometry">
            <mxPoint x="643" y="425" as="sourcePoint" />
            <mxPoint x="663.4156097560974" y="425" as="targetPoint" />
          </mxGeometry>
        </mxCell>
        <mxCell id="LoAmK8Ps8y504nuqluMm-41" value="&lt;div&gt;`p = 0.5`&lt;/div&gt;`r = 0`" style="text;html=1;align=center;verticalAlign=middle;whiteSpace=wrap;rounded=0;fontSize=10;fontColor=#FF0000;" vertex="1" parent="1">
          <mxGeometry x="580" y="430" width="60" height="30" as="geometry" />
        </mxCell>
        <mxCell id="LoAmK8Ps8y504nuqluMm-42" value="" style="endArrow=classic;html=1;rounded=0;fillColor=#d5e8d4;strokeColor=#009900;" edge="1" parent="1">
          <mxGeometry width="50" height="50" relative="1" as="geometry">
            <mxPoint x="629.99" y="435" as="sourcePoint" />
            <mxPoint x="629.5699999999999" y="455" as="targetPoint" />
          </mxGeometry>
        </mxCell>
      </root>
    </mxGraphModel>
  </diagram>
</mxfile>
